<svg width="752pt" height="752pt" version="1.1" viewBox="0 0 752 752" xmlns="http://www.w3.org/2000/svg">
 <path d="m362.73 376 115.19-115.14c9.9727-9.9766 13.871-24.516 10.219-38.145-3.6523-13.625-14.297-24.27-27.922-27.918-13.629-3.6523-28.168 0.24219-38.141 10.219l-143.06 143.06v-0.003906c-7.3945 7.4023-11.551 17.438-11.551 27.898 0 10.461 4.1562 20.496 11.551 27.898l143.06 143.06v-0.003906c9.9648 9.9766 24.496 13.875 38.117 10.234 13.625-3.6445 24.27-14.277 27.922-27.898 3.6562-13.617-0.23047-28.152-10.195-38.129z" fill="#9b9b9b"/>
</svg>